<?xml version="1.0" standalone="no"?><!DOCTYPE svg PUBLIC "-//W3C//DTD SVG 1.1//EN" "http://www.w3.org/Graphics/SVG/1.1/DTD/svg11.dtd"><svg t="1566137685659" class="icon" viewBox="0 0 1024 1024" version="1.1" xmlns="http://www.w3.org/2000/svg" p-id="1992" xmlns:xlink="http://www.w3.org/1999/xlink" width="200" height="200"><defs><style type="text/css"></style></defs><path d="M512.1 65c-247 0-447.5 200.5-447.5 447.5S265.1 960 512.1 960s447.5-200.5 447.5-447.5S759.1 65 512.1 65z m-0.9 864.8c-230.6 0-417.7-187.1-417.7-417.7S280.6 94.5 511.2 94.5s417.7 187.1 417.7 417.7-187.1 417.6-417.7 417.6z" fill="#1699DB" p-id="1993"></path><path d="M217.9 533.1c-24.5 57.6-28.3 112.5-8.9 122.6 13.4 7.2 34.6-8.9 54.6-38.5 7.8 32.2 27.4 61.2 55.2 84.7-29.2 10.7-48 28.3-48 48.3 0 32.8 51.6 59.1 115.2 59.1 57.3 0 104.7-21.5 113.7-49.8h13.7c8.9 28.3 56.4 49.8 113.7 49.8 63.5 0 115.2-26.6 115.2-59.1 0-20-19.1-37.6-48-48.3 27.7-23.3 47.1-52.5 55.2-84.7 20 29.5 40.9 45.6 54.6 38.5 19.7-10.1 15.8-65.3-8.7-122.6-19.1-45.3-45.3-78.5-65.3-85.9 0.3-3 0.3-6 0.3-8.6 0-17.6-4.8-33.7-13.1-46.8v-3c0-8.1-1.8-15.5-5.1-22.1-5.1-117.5-81.4-210.9-205.3-210.9s-200.5 93.4-205.3 210.9c-3.3 6.6-5.1 14-5.1 22.1v3c-8.4 13.1-13.1 29.2-13.1 46.8 0 3 0 6 0.3 8.6-20.4 7.7-46.7 40.8-65.8 85.9z" fill="#1699DB" p-id="1994"></path></svg>